<svg width="198" height="182" viewBox="0 0 198 182" fill="none" xmlns="http://www.w3.org/2000/svg">
<path d="M75.9764 30.8704C81.9625 28.5675 86.2105 22.7623 86.2105 15.9649C86.2105 7.14774 79.0628 0 70.2456 0C61.4284 0 54.2807 7.14774 54.2807 15.9649C54.2807 24.1129 60.3847 30.8353 68.2694 31.8087L61.1497 89.4035L26.8281 59.594C29.9663 56.6787 31.9298 52.516 31.9298 47.8948C31.9298 39.0776 24.7821 31.9299 15.9649 31.9299C7.14774 31.9299 0 39.0776 0 47.8948C0 56.712 7.14774 63.8597 15.9649 63.8597C17.5171 63.8597 19.0175 63.6382 20.4363 63.2251L38.3158 124.526L56.8052 154.782L38.3158 158.053V182L159.895 182V158.053L141.168 154.768L159.649 124.526L177.529 63.2251C178.947 63.6382 180.448 63.8597 182 63.8597C190.817 63.8597 197.965 56.712 197.965 47.8948C197.965 39.0776 190.817 31.9299 182 31.9299C173.183 31.9299 166.035 39.0776 166.035 47.8948C166.035 52.516 167.999 56.6787 171.137 59.594L136.815 89.4035L129.696 31.8087C137.58 30.8353 143.684 24.1129 143.684 15.9649C143.684 7.14774 136.536 0 127.719 0C118.902 0 111.754 7.14774 111.754 15.9649C111.754 22.7623 116.002 28.5675 121.989 30.8704L98.9825 83.0175L75.9764 30.8704Z" fill="#34364C"/>
</svg>
