<svg width="179" height="201" viewBox="0 0 179 201" fill="none" xmlns="http://www.w3.org/2000/svg">
<path fill-rule="evenodd" clip-rule="evenodd" d="M109.438 36.8207L77.8682 0C73.2985 8.67557 68.8682 23.9873 75.2377 35.0408C72.1462 35.316 69.1917 35.8389 66.9064 36.756C52.3267 42.607 36.3291 57.7234 28.4664 89.1743C26.1896 98.2813 22.0919 102.642 17.2216 107.826C12.6275 112.715 7.34604 118.336 2.2572 129.362C-8.22644 152.076 20.0666 174.791 40.6973 154.16C52.2962 142.561 62.4347 137.773 70.9467 133.753C83.1981 127.967 92.08 123.772 97.0971 103.153C99.4841 112.771 98.5293 135.469 75.6142 149.319C52.6991 163.169 47.9251 192.344 48.4025 201H178.732C178.732 118.819 167.852 47.8156 109.438 36.8207Z" fill="#428295"/>
</svg>
