<svg width="56" height="51" viewBox="0 0 56 51" fill="none" xmlns="http://www.w3.org/2000/svg">
<path d="M4.47598 12.8743L25.5222 0.749923V7.62425C25.5222 7.62425 19.1446 7.33259 19.4635 12.8743C19.7823 18.416 25.5222 18.1243 25.5222 18.1243V24.9987L4.47598 12.8743Z" fill="white"/>
<path d="M51.5238 12.9999L30.4776 25.1243V0.875556L51.5238 12.9999Z" fill="#AF52DE"/>
<path d="M32.072 13.5833C32.072 15.6249 31.9027 16.7916 29.1265 16.7916C26.3504 16.7916 24.3067 15.256 24.3067 12.8815C24.3067 10.5071 26.3504 9.20827 29.1265 9.20827C33.0286 9.20827 32.072 10.7171 32.072 13.5833Z" fill="#AF52DE"/>
<path d="M8.27511 41H5.76955V37.0647C5.76955 36.0974 5.48407 35.6138 4.91312 35.6138C4.49789 35.6138 4.19354 35.7884 4.00008 36.1375C3.81134 36.482 3.71697 37.0459 3.71697 37.8291V41H1.22556V31.091H3.71697V32.4995C3.71697 33.1035 3.68394 33.8278 3.61788 34.6724H3.73112C3.96705 34.3091 4.24545 34.0496 4.56631 33.8939C4.88717 33.7334 5.27174 33.6532 5.72 33.6532C6.53159 33.6532 7.15916 33.8868 7.60271 34.3539C8.05097 34.8163 8.27511 35.4675 8.27511 36.3074V41ZM16.3957 41H14.6757L14.1944 40.0445H14.1449C13.8193 40.455 13.4772 40.7381 13.1186 40.8939C12.7647 41.0496 12.3141 41.1274 11.7667 41.1274C11.0825 41.1274 10.547 40.9222 10.1601 40.5117C9.77315 40.1011 9.57969 39.5302 9.57969 38.7988C9.57969 37.3172 10.6201 36.5339 12.701 36.449L13.9113 36.4065V36.3074C13.9113 35.7129 13.6164 35.4156 13.0266 35.4156C12.5076 35.4156 11.8399 35.5925 11.0236 35.9464L10.3016 34.3044C11.1463 33.8703 12.2079 33.6532 13.4867 33.6532C14.4115 33.6532 15.1264 33.8844 15.6313 34.3468C16.1409 34.8093 16.3957 35.4486 16.3957 36.2649V41ZM12.1206 38.7068C12.1206 39.1503 12.3566 39.3721 12.8284 39.3721C13.1304 39.3721 13.3876 39.2777 13.5999 39.089C13.8122 38.9003 13.9184 38.6502 13.9184 38.3387V37.7796L13.3451 37.8008C12.5288 37.8386 12.1206 38.1406 12.1206 38.7068ZM21.3742 41.1274C20.1993 41.1274 19.3051 40.8113 18.6917 40.179C18.0783 39.542 17.7716 38.6242 17.7716 37.4257C17.7716 36.2272 18.0995 35.3 18.7554 34.6441C19.416 33.9835 20.355 33.6532 21.5724 33.6532C22.4028 33.6532 23.1908 33.8372 23.9364 34.2053L23.2003 36.0455C22.5397 35.7577 22.0018 35.6138 21.5865 35.6138C21.1713 35.6138 20.8528 35.7718 20.631 36.088C20.414 36.3994 20.3054 36.8406 20.3054 37.4115C20.3054 38.5676 20.7325 39.1456 21.5865 39.1456C22.3132 39.1456 23.0139 38.9333 23.6886 38.5086V40.4904C23.0422 40.9151 22.2707 41.1274 21.3742 41.1274ZM27.6296 41H25.124V31.091H27.6296V34.9838C27.6296 35.6397 27.5824 36.2932 27.488 36.9444H27.5446C27.8419 36.4631 28.0967 36.088 28.309 35.819L29.9299 33.7806H32.7044L30.2059 36.8524L32.8672 41H30.0219L28.4364 38.4166L27.6296 39.0324V41ZM36.5901 38.4591C36.5901 38.9262 36.8143 39.1598 37.2625 39.1598C37.5928 39.1598 37.9939 39.0772 38.4658 38.9121V40.724C38.1591 40.8608 37.8476 40.9623 37.5315 41.0283C37.2201 41.0944 36.8567 41.1274 36.4415 41.1274C35.6158 41.1274 35.0141 40.9245 34.6367 40.5187C34.2639 40.1129 34.0775 39.4806 34.0775 38.6219V35.6492H33.2069V34.637L34.3111 33.8514L34.9552 32.3367H36.5901V33.7806H38.3596V35.6492H36.5901V38.4591ZM44.1634 37.3478C44.1634 36.1918 43.852 35.6138 43.2291 35.6138C42.8799 35.6138 42.6228 35.7341 42.4576 35.9747C42.2972 36.2154 42.217 36.5952 42.217 37.1143V37.4682C42.217 38.058 42.2972 38.4827 42.4576 38.7422C42.6228 38.997 42.887 39.1244 43.2503 39.1244C43.5476 39.1244 43.7741 38.9734 43.9298 38.6714C44.0855 38.3694 44.1634 37.9282 44.1634 37.3478ZM42.217 34.7149C42.6841 34.0071 43.3164 33.6532 44.1138 33.6532C44.9113 33.6532 45.5412 33.9835 46.0036 34.6441C46.466 35.3047 46.6973 36.2178 46.6973 37.3832C46.6973 38.5487 46.4637 39.4641 45.9965 40.1294C45.5388 40.7948 44.8924 41.1274 44.0572 41.1274C43.5712 41.1274 43.1489 41.0213 42.7903 40.8089C42.6204 40.7004 42.4293 40.5282 42.217 40.2922H42.0683L41.672 41H39.7256V31.091H42.217V33.3276C42.217 33.5919 42.1887 34.0543 42.132 34.7149H42.217ZM50.4492 33.6532C50.855 33.6532 51.2089 33.7358 51.5109 33.9009C51.8176 34.0661 52.0936 34.3374 52.339 34.7149H52.3885C52.3083 34.1298 52.2682 33.5636 52.2682 33.0162V31.091H54.7808V41H52.8981L52.3673 40.087H52.2682C51.8388 40.7806 51.1994 41.1274 50.3501 41.1274C49.581 41.1463 48.9605 40.816 48.4886 40.1365C48.0215 39.4571 47.7879 38.5369 47.7879 37.3762C47.7926 36.2154 48.0309 35.3047 48.5028 34.6441C48.9794 33.9835 49.6282 33.6532 50.4492 33.6532ZM51.3481 35.6633C51.0178 35.6633 50.763 35.8167 50.5837 36.1234C50.4044 36.4301 50.3147 36.8666 50.3147 37.4328C50.3147 37.999 50.4044 38.4284 50.5837 38.721C50.7677 39.0135 51.0414 39.1598 51.4047 39.1598C51.7728 39.1598 52.0393 39.0395 52.2045 38.7988C52.3744 38.5534 52.4664 38.1618 52.4805 37.6239V37.4257C52.4805 36.7981 52.3885 36.3475 52.2045 36.0738C52.0252 35.8002 51.7397 35.6633 51.3481 35.6633Z" fill="#696969"/>
</svg>
